<svg width="22" height="17" viewBox="0 0 22 17" fill="none" xmlns="http://www.w3.org/2000/svg">
<path d="M0.333344 2.17463C0.333344 1.46126 0.911642 0.882965 1.62501 0.882965H20.375C21.0884 0.882965 21.6667 1.46126 21.6667 2.17463C21.6667 2.888 21.0884 3.4663 20.375 3.4663H1.62501C0.911642 3.4663 0.333344 2.888 0.333344 2.17463ZM5.66668 8.63296C5.66668 7.9196 6.24498 7.3413 6.95834 7.3413H20.375C21.0884 7.3413 21.6667 7.9196 21.6667 8.63296C21.6667 9.34633 21.0884 9.92463 20.375 9.92463H6.95834C6.24498 9.92463 5.66668 9.34633 5.66668 8.63296ZM12.3333 15.0913C12.3333 14.3779 12.9116 13.7996 13.625 13.7996H20.375C21.0884 13.7996 21.6667 14.3779 21.6667 15.0913C21.6667 15.8047 21.0884 16.383 20.375 16.383H13.625C12.9116 16.383 12.3333 15.8047 12.3333 15.0913Z" fill="#23CBD8"/>
</svg>
