<svg width="17" height="22" viewBox="0 0 17 22" fill="none" xmlns="http://www.w3.org/2000/svg">
<path d="M11.7692 3.34117H15.6923C16.4769 3.34117 17 3.86617 17 4.65367V5.96617H0V4.65367C0 3.86617 0.653846 3.34117 1.30769 3.34117H5.23077C5.49231 1.89742 6.93077 0.716171 8.5 0.716171C10.0692 0.716171 11.5077 1.89742 11.7692 3.34117ZM6.53846 3.34117H10.4615C10.2 2.55367 9.28462 2.02867 8.5 2.02867C7.71538 2.02867 6.8 2.55367 6.53846 3.34117ZM1.30769 7.27867H15.6923L14.5154 20.5349C14.5154 21.1912 13.8615 21.7162 13.2077 21.7162H3.79231C3.13846 21.7162 2.61538 21.1912 2.48462 20.5349L1.30769 7.27867Z" fill="#8BA8E6"/>
</svg>
