<svg width="15" height="15" viewBox="0 0 15 15" fill="none" xmlns="http://www.w3.org/2000/svg">
<path d="M5.20031 2.79797L5.05359 2.82703C2.02125 3.50109 1.42078 6.47484 1.42078 6.47484L1.40625 6.51797V12.1875H13.5938V9.375H13.125C12.8597 9.375 12.6562 9.17156 12.6562 8.90625C12.6562 8.64094 12.8597 8.4375 13.125 8.4375H13.5938V6.255L13.3008 6.12328L5.33203 2.84203L5.20031 2.79797ZM5.14172 3.79406L6.44531 4.33594C6.23859 4.42219 6.09375 4.54266 6.09375 4.6875C6.09375 4.94531 6.51328 5.15625 7.03125 5.15625C7.38656 5.15625 7.69219 5.05359 7.85156 4.90734L10.7372 6.09375H2.51953C2.80172 5.4 3.50109 4.21875 5.14172 3.79406V3.79406ZM2.34375 7.03125H3.79406C3.76643 7.10638 3.75154 7.18559 3.75 7.26562C3.75 7.4521 3.82408 7.63095 3.95594 7.76281C4.0878 7.89467 4.26664 7.96875 4.45312 7.96875C4.63961 7.96875 4.81845 7.89467 4.95031 7.76281C5.08217 7.63095 5.15625 7.4521 5.15625 7.26562C5.15625 7.185 5.1375 7.10437 5.11219 7.03125H12.6562V7.69031C12.1359 7.8975 11.7188 8.31656 11.7188 8.90625C11.7188 9.49594 12.1359 9.915 12.6562 10.1222V11.25H6.89953C6.98016 11.1127 7.03125 10.9514 7.03125 10.7812C7.03125 10.5326 6.93248 10.2942 6.75666 10.1183C6.58085 9.94252 6.34239 9.84375 6.09375 9.84375C5.84511 9.84375 5.60665 9.94252 5.43084 10.1183C5.25502 10.2942 5.15625 10.5326 5.15625 10.7812C5.15625 10.9514 5.20781 11.1127 5.28797 11.25H2.34375V7.03125ZM9.14062 7.96875C8.95414 7.96875 8.7753 8.04283 8.64344 8.17469C8.51158 8.30655 8.4375 8.48539 8.4375 8.67187C8.4375 8.85835 8.51158 9.0372 8.64344 9.16906C8.7753 9.30092 8.95414 9.375 9.14062 9.375C9.32711 9.375 9.50595 9.30092 9.63781 9.16906C9.76967 9.0372 9.84375 8.85835 9.84375 8.67187C9.84375 8.48539 9.76967 8.30655 9.63781 8.17469C9.50595 8.04283 9.32711 7.96875 9.14062 7.96875Z" fill="#405C72"/>
</svg>
