<svg width="16" height="16" viewBox="0 0 16 16" fill="none" xmlns="http://www.w3.org/2000/svg">
<path d="M14.7732 12.49C14.4788 12.0864 14.0676 11.8821 13.5527 11.8821C13.4347 11.8821 13.3251 11.893 13.2237 11.9039C13.9604 10.4088 13.9687 8.57052 12.6206 7.41147C12.1427 7.00175 11.4466 6.78421 11.0473 6.29593C10.6349 5.79194 10.5407 5.00151 10.1045 4.46489C9.69805 3.96574 9.15811 3.61887 8.55857 3.40495C7.43936 3.0049 6.08891 3.08829 5.02095 3.65875C4.92322 3.55844 4.83025 3.45329 4.74204 3.3421L4.6741 3.2575C4.64192 3.21761 4.6014 3.16927 4.5859 3.14389L4.58352 3.11971C4.57875 3.04962 4.57994 2.9626 4.58113 2.87074C4.58352 2.42598 4.58948 1.59929 3.83857 1.14848C3.62496 1.02002 3.3813 0.951992 3.13295 0.951477C2.55964 0.951477 1.99348 1.3201 1.69073 1.89177C1.55843 2.14074 1.48691 2.17338 1.2974 2.20843C0.811093 2.29786 0.395113 2.64473 0.182951 3.13664C-0.0315944 3.63337 0.000587382 4.18812 0.269961 4.61959C0.750305 5.38827 1.50956 5.38827 1.75867 5.38827C1.84449 5.38827 1.9315 5.38464 2.01851 5.38102C2.08645 5.3786 2.15558 5.37497 2.22352 5.37497C2.39754 5.37497 2.4476 5.39673 2.47144 5.41365C2.52627 5.45353 2.58944 5.54055 2.66214 5.64087C2.69433 5.68679 2.73128 5.73514 2.77061 5.7859C2.38562 6.41075 2.13412 7.1069 2.10194 7.84053C2.034 9.37666 2.76107 10.9346 4.21522 11.5195C5.06148 11.8603 5.52752 11.777 5.84338 12.7438C5.97449 13.1451 6.19499 13.5294 6.53469 13.7893C7.74091 14.7078 9.49423 14.6776 10.9388 14.0322L10.9674 14.0636L11.0247 14.1241C11.033 14.1893 11.0366 14.2498 11.0401 14.3114C11.0664 14.709 11.114 15.4511 11.834 15.8137C12.0163 15.9055 12.2082 15.9515 12.4073 15.9515C12.9627 15.9515 13.505 15.5671 13.7565 14.9955C13.8388 14.8106 13.8674 14.8021 13.9925 14.7695C14.4347 14.6534 14.7947 14.3066 14.9556 13.8425C15.1177 13.3747 15.0498 12.8683 14.7732 12.49V12.49ZM5.10439 5.65779C4.93871 5.86808 4.6455 6.11222 4.36421 6.11222C4.26885 6.11222 4.17588 6.08442 4.08887 6.01795C3.86598 5.84995 3.60495 5.6179 3.42497 5.40519C3.35465 5.32179 3.29386 5.23477 3.23069 5.14896C3.13772 5.02085 3.04117 4.89636 2.9053 4.79847C2.6979 4.64739 2.4619 4.61839 2.22233 4.61839C2.06738 4.61839 1.91004 4.63047 1.75748 4.63047C1.43089 4.63047 1.12457 4.57367 0.900487 4.21471C0.613234 3.75423 0.912406 3.04962 1.43089 2.95414C1.88024 2.87074 2.12697 2.6677 2.34748 2.25073C2.50481 1.95583 2.81113 1.70927 3.13176 1.70927C3.24023 1.70927 3.34988 1.73707 3.45715 1.80113C3.93631 2.08877 3.80877 2.6967 3.83738 3.16806C3.85645 3.47746 3.97683 3.58624 4.16039 3.81829C4.23071 3.90652 4.30461 3.98749 4.37851 4.06847C4.51439 4.21834 4.65384 4.36095 4.80998 4.49511C5.18425 4.82022 5.47865 5.18401 5.10439 5.65779V5.65779ZM13.803 14.0383C13.4288 14.1362 13.2333 14.3235 13.0724 14.6873C12.9532 14.9592 12.691 15.1949 12.4049 15.1949C12.3262 15.1949 12.2452 15.1768 12.1641 15.1369C11.7434 14.9242 11.8137 14.4033 11.7613 14.008C11.7398 13.8497 11.6886 13.7566 11.6147 13.666C12.0473 13.3917 12.4311 13.0593 12.7374 12.6774C12.7911 12.6846 12.8459 12.6907 12.9007 12.6907C13.1177 12.6907 13.3417 12.6399 13.5527 12.6399C13.7816 12.6399 13.9949 12.6979 14.1737 12.942C14.4443 13.3119 14.2345 13.9246 13.803 14.0383V14.0383Z" fill="#405C72"/>
</svg>
