<svg width="20" height="20" viewBox="0 0 20 20" fill="none" xmlns="http://www.w3.org/2000/svg">
<path d="M8.59973 16.8017C10.3747 16.8013 12.0985 16.2071 13.4967 15.1137L17.8927 19.5097L19.3067 18.0957L14.9107 13.6997C16.0047 12.3014 16.5993 10.5771 16.5997 8.80171C16.5997 4.39071 13.0107 0.801712 8.59973 0.801712C4.18873 0.801712 0.599731 4.39071 0.599731 8.80171C0.599731 13.2127 4.18873 16.8017 8.59973 16.8017ZM8.59973 2.80171C11.9087 2.80171 14.5997 5.49271 14.5997 8.80171C14.5997 12.1107 11.9087 14.8017 8.59973 14.8017C5.29073 14.8017 2.59973 12.1107 2.59973 8.80171C2.59973 5.49271 5.29073 2.80171 8.59973 2.80171Z" fill="white"/>
<path d="M10.0117 7.38771C10.3907 7.76771 10.5997 8.26971 10.5997 8.80171H12.5997C12.6006 8.27614 12.4973 7.7556 12.2958 7.2702C12.0943 6.78479 11.7986 6.34414 11.4257 5.97371C9.91173 4.46171 7.28673 4.46171 5.77373 5.97371L7.18573 7.38971C7.94573 6.63171 9.25573 6.63371 10.0117 7.38771Z" fill="white"/>
</svg>
