<svg width="13" height="16" viewBox="0 0 13 16" fill="none" xmlns="http://www.w3.org/2000/svg">
<path d="M9.22058 2.3027H12.0277C12.5892 2.3027 12.9635 2.67837 12.9635 3.24187V4.18103H0.799072V3.24187C0.799072 2.67837 1.26693 2.3027 1.7348 2.3027H4.54196C4.72911 1.26962 5.7584 0.424377 6.88127 0.424377C8.00414 0.424377 9.03343 1.26962 9.22058 2.3027ZM5.47769 2.3027H8.28486C8.09771 1.73921 7.44271 1.36354 6.88127 1.36354C6.31984 1.36354 5.66483 1.73921 5.47769 2.3027ZM1.7348 5.12019H12.0277L11.1856 14.6057C11.1856 15.0753 10.7177 15.451 10.2499 15.451H3.51267C3.04481 15.451 2.67052 15.0753 2.57695 14.6057L1.7348 5.12019Z" fill="white"/>
</svg>
