<svg width="16" height="16" viewBox="0 0 16 16" fill="none" xmlns="http://www.w3.org/2000/svg">
<path fill-rule="evenodd" clip-rule="evenodd" d="M8.60515 3.82176C8.8123 3.14926 9.38101 2.20427 10.919 2.20427V1.56577C9.20515 1.56577 8.37782 2.43526 8.02868 3.32426C8.10886 2.69451 8.15903 1.94302 8.00308 1.61352C7.71187 0.99702 6.94403 0.719771 6.28817 0.99402C5.63334 1.26827 5.33825 1.99027 5.62998 2.60676C5.7611 2.88426 6.22713 3.26026 6.69989 3.59076C4.31386 2.60776 0.391357 3.28051 0.391357 7.71749C0.391357 11.075 4.47265 15.8882 6.25377 15.8882C7.06196 15.8882 7.35291 15.3995 7.82179 15.3995C8.29868 15.3995 8.45231 15.8872 9.48627 15.8872C11.2687 15.8872 15.3914 11.0905 15.3914 7.71749C15.3914 2.96901 10.8991 2.53176 8.60515 3.82176" fill="#405C72"/>
</svg>
