<svg width="16" height="16" viewBox="0 0 16 16" fill="none" xmlns="http://www.w3.org/2000/svg">
<path d="M15.0886 6.76545V7.30116C15.0886 7.74496 14.8088 8.10472 14.4636 8.10472H14.2553L13.5753 14.2248C13.4873 15.0166 12.9599 15.6047 12.3378 15.6047H2.8394C2.21735 15.6047 1.68995 15.0166 1.60196 14.2248L0.921956 8.10472H0.713623C0.368441 8.10472 0.088623 7.74496 0.088623 7.30116V6.76545C0.088623 6.32164 0.368441 5.96188 0.713623 5.96188H2.46729L5.24802 1.04603C5.51873 0.567505 6.03987 0.461668 6.41211 0.809713C6.78433 1.15776 6.86662 1.82783 6.59591 2.30639L4.52813 5.96188H10.6491L8.58133 2.30636C8.31063 1.82783 8.39295 1.15772 8.76516 0.80968C9.13732 0.461635 9.65854 0.567438 9.92925 1.046L12.71 5.96188H14.4636C14.8088 5.96188 15.0886 6.32164 15.0886 6.76545ZM8.21362 12.6583V8.90829C8.21362 8.46449 7.93381 8.10472 7.58862 8.10472C7.24344 8.10472 6.96362 8.46449 6.96362 8.90829V12.6583C6.96362 13.1021 7.24344 13.4618 7.58862 13.4618C7.93381 13.4618 8.21362 13.1021 8.21362 12.6583ZM11.1303 12.6583V8.90829C11.1303 8.46449 10.8505 8.10472 10.5053 8.10472C10.1601 8.10472 9.88029 8.46449 9.88029 8.90829V12.6583C9.88029 13.1021 10.1601 13.4618 10.5053 13.4618C10.8505 13.4618 11.1303 13.1021 11.1303 12.6583ZM5.29696 12.6583V8.90829C5.29696 8.46449 5.01714 8.10472 4.67196 8.10472C4.32677 8.10472 4.04696 8.46449 4.04696 8.90829V12.6583C4.04696 13.1021 4.32677 13.4618 4.67196 13.4618C5.01714 13.4618 5.29696 13.1021 5.29696 12.6583Z" fill="#405C72"/>
</svg>
