<svg width="16" height="16" viewBox="0 0 16 16" fill="none" xmlns="http://www.w3.org/2000/svg">
<g clip-path="url(#clip0)">
<path d="M14.2835 7.86133C14.1009 6.59711 14.0716 6.15953 14.0817 6.02008C14.1051 5.96711 14.1783 5.85695 14.2282 5.78242C14.3946 5.53398 14.6011 5.22508 14.6011 4.84375C14.6011 3.20898 12.4254 1.73969 9.54771 1.73969C7.15475 1.73969 4.6849 2.5989 2.94443 3.57086C2.60898 3.73607 2.29038 3.93348 1.99311 4.16031C1.98952 4.16287 1.98585 4.16529 1.98209 4.16758C1.98139 4.16804 1.98162 4.16898 1.98115 4.16969C1.08771 4.85898 0.538574 5.7339 0.538574 6.5289C0.538574 6.91023 0.745059 7.21914 0.911699 7.46758C0.96209 7.54281 1.03615 7.65414 1.05865 7.70664C1.0692 7.8339 1.04178 8.26656 0.856387 9.54695C0.843965 9.63437 0.833418 9.70515 0.826621 9.75414C0.48748 12.2395 0.548184 13.4256 1.05186 14.1323C1.48568 14.7402 2.17732 14.8647 3.08271 14.8647C3.39725 14.8647 3.75373 14.8499 4.13107 14.8345C4.60404 14.8148 5.13959 14.7927 5.73279 14.7927C6.326 14.7927 6.86201 14.8148 7.33451 14.8345C7.71209 14.8502 8.06834 14.8647 8.38287 14.8647C8.55092 14.8647 8.70865 14.8584 8.86147 14.8473L8.86076 14.8499C8.90693 14.8499 8.9592 14.8443 9.01451 14.8363C9.42514 14.7932 9.77576 14.692 10.0612 14.4864C11.5828 13.8133 13.762 12.3991 14.088 11.9416C14.5919 11.2352 14.6529 10.5541 14.3133 8.06898C14.3062 8.02 14.2957 7.94875 14.2835 7.86133ZM10.2208 9.835C10.766 13.8243 10.267 14.3594 8.38287 14.3594C7.6917 14.3594 6.81373 14.2872 5.73279 14.2872C4.65186 14.2872 3.77412 14.3594 3.08271 14.3594C1.19904 14.3594 0.700059 13.8238 1.24475 9.835C1.29326 9.4832 1.5335 7.94125 1.47232 7.59226C1.41959 7.2925 0.962324 6.89242 0.962324 6.5289C0.962324 5.2157 3.09818 3.42461 5.73279 3.42461C8.3674 3.42461 10.5033 5.21593 10.5033 6.5289C10.5033 6.89242 10.046 7.2925 9.99326 7.59226C9.93186 7.94125 10.1726 9.4832 10.2208 9.835Z" fill="#405C72"/>
</g>
<defs>
<clipPath id="clip0">
<rect width="15" height="15" fill="white" transform="translate(0.0698242 0.802185)"/>
</clipPath>
</defs>
</svg>
