<svg width="16" height="16" viewBox="0 0 16 16" fill="none" xmlns="http://www.w3.org/2000/svg">
<path d="M2.03866 14.3417C3.17116 15.3617 10.7687 10.8392 11.8937 8.93423C12.4337 8.01923 11.7962 6.67673 10.7537 5.60423C11.9387 4.81673 12.9812 7.26923 13.9712 6.75173C14.4212 6.51173 14.7137 5.76923 14.4962 5.31173C14.1062 4.50173 12.8087 4.50173 11.9312 4.40423C12.5537 4.25423 14.0462 3.61673 14.0762 2.71673C14.1062 2.02673 13.2287 1.23923 12.5387 1.32173C11.6312 1.42673 11.3012 2.73173 10.9937 3.57173C10.9562 3.03923 10.8437 1.86923 10.2587 1.35923C9.47866 0.676726 8.54116 1.32173 8.51866 2.14673C8.48866 3.14423 10.6337 3.69923 9.95866 4.89923C8.81866 4.02173 7.47616 3.54173 6.61366 4.04423C6.24616 4.27673 5.82616 4.72673 5.39116 5.31173C6.05866 6.01673 6.98116 6.86422 7.70866 7.35173C7.85866 7.45673 7.90366 7.66673 7.79116 7.81672C7.68616 7.97423 7.47616 8.01173 7.32616 7.90673C6.58366 7.40423 5.67616 6.57173 5.00116 5.87423C4.66366 6.37673 4.31866 6.94673 3.99616 7.54673C4.63366 8.19173 5.44366 8.91923 6.08866 9.35423C6.23866 9.45922 6.27616 9.66922 6.17116 9.81923C6.06616 9.97672 5.85616 10.0142 5.69866 9.90923C5.06116 9.47423 4.30366 8.79923 3.66616 8.16923C2.33866 10.7867 1.36366 13.7417 2.03866 14.3417Z" fill="#405C72"/>
</svg>
