<svg width="16" height="16" viewBox="0 0 16 16" fill="none" xmlns="http://www.w3.org/2000/svg">
<path d="M15.2512 1.4064C15.335 1.28751 15.3831 1.14931 15.3904 1.00655C15.3977 0.863788 15.364 0.721823 15.2928 0.5958C15.2216 0.469776 15.1157 0.364422 14.9862 0.290976C14.8568 0.217531 14.7088 0.178751 14.5579 0.178772H1.22428C1.07354 0.178846 0.925641 0.217652 0.79634 0.291057C0.66704 0.364462 0.561177 0.469718 0.490028 0.595613C0.418878 0.721508 0.385107 0.863329 0.392309 1.00597C0.399512 1.14861 0.44742 1.28673 0.53093 1.40561L7.05773 10.6811V13.5998H4.55768V15.1788H11.2245V13.5998H8.72443V10.6811L15.2512 1.4064V1.4064ZM13.0012 1.75772L11.3345 4.12614H4.44768L2.78098 1.75772H13.0012V1.75772Z" fill="#405C72"/>
</svg>
