<svg width="17" height="17" viewBox="0 0 17 17" fill="none" xmlns="http://www.w3.org/2000/svg">
<path d="M16.5999 8.21617C16.5999 8.96272 16.5351 9.56616 15.7886 9.56616H9.8499V15.5048C9.8499 16.25 9.24645 16.3162 8.4999 16.3162C7.75335 16.3162 7.1499 16.25 7.1499 15.5048V9.56616H1.21125C0.466052 9.56616 0.399902 8.96272 0.399902 8.21617C0.399902 7.46962 0.466052 6.86617 1.21125 6.86617H7.1499V0.927515C7.1499 0.180965 7.75335 0.116165 8.4999 0.116165C9.24645 0.116165 9.8499 0.180965 9.8499 0.927515V6.86617H15.7886C16.5351 6.86617 16.5999 7.46962 16.5999 8.21617Z" fill="#8BA8E6"/>
</svg>
