<svg width="15" height="16" viewBox="0 0 15 16" fill="none" xmlns="http://www.w3.org/2000/svg">
<g clip-path="url(#clip0)">
<path d="M12.1875 5.81321C12.187 6.20013 12.1062 6.58273 11.9501 6.93679C11.7941 7.29086 11.5663 7.60868 11.2811 7.87014C11.9012 8.09653 12.4216 8.53425 12.7509 9.10636C13.0803 9.67847 13.1974 10.3484 13.0818 10.9983C12.9661 11.6482 12.6251 12.2366 12.1186 12.6599C11.6121 13.0833 10.9726 13.3146 10.3125 13.3132H4.6875C3.94158 13.3132 3.22621 13.0169 2.69876 12.4894C2.17132 11.962 1.875 11.2466 1.875 10.5007C1.875 9.75479 2.17132 9.03942 2.69876 8.51197C3.22621 7.98452 3.94158 7.68821 4.6875 7.68821H7.29229C6.82445 7.17563 6.56428 6.50718 6.5625 5.81321H2.8125C2.06658 5.81321 1.35121 6.10952 0.823762 6.63697C0.296316 7.16441 0 7.87979 0 8.62571L0 12.3757C0 13.1216 0.296316 13.837 0.823762 14.3644C1.35121 14.8919 2.06658 15.1882 2.8125 15.1882H12.1875C12.9334 15.1882 13.6488 14.8919 14.1762 14.3644C14.7037 13.837 15 13.1216 15 12.3757V8.62571C15 7.87979 14.7037 7.16441 14.1762 6.63697C13.6488 6.10952 12.9334 5.81321 12.1875 5.81321ZM9.375 7.68821C9.74584 7.68821 10.1084 7.57824 10.4167 7.37221C10.725 7.16618 10.9654 6.87335 11.1073 6.53074C11.2492 6.18813 11.2863 5.81113 11.214 5.44741C11.1416 5.0837 10.963 4.7496 10.7008 4.48738C10.4386 4.22516 10.1045 4.04658 9.74079 3.97423C9.37708 3.90188 9.00008 3.93902 8.65747 4.08093C8.31486 4.22284 8.02202 4.46317 7.81599 4.77151C7.60997 5.07985 7.5 5.44237 7.5 5.81321C7.5 6.31049 7.69754 6.7874 8.04918 7.13903C8.40081 7.49066 8.87772 7.68821 9.375 7.68821ZM6.09375 3.0007C6.37188 3.0007 6.64376 2.91823 6.87502 2.76371C7.10628 2.60919 7.28652 2.38956 7.39296 2.1326C7.49939 1.87564 7.52724 1.59289 7.47298 1.32011C7.41872 1.04732 7.28479 0.796752 7.08812 0.600084C6.89145 0.403416 6.64088 0.269484 6.3681 0.215223C6.09531 0.160963 5.81256 0.188811 5.5556 0.295247C5.29864 0.401683 5.07902 0.581925 4.9245 0.813182C4.76998 1.04444 4.6875 1.31632 4.6875 1.59445C4.6875 1.96741 4.83566 2.3251 5.09938 2.58882C5.3631 2.85255 5.72079 3.0007 6.09375 3.0007ZM11.25 2.0632C11.4354 2.0632 11.6167 2.00822 11.7708 1.90521C11.925 1.80219 12.0452 1.65577 12.1161 1.48447C12.1871 1.31316 12.2057 1.12466 12.1695 0.942806C12.1333 0.760949 12.044 0.593902 11.9129 0.46279C11.7818 0.331678 11.6148 0.24239 11.4329 0.206216C11.251 0.170043 11.0625 0.188608 10.8912 0.259566C10.7199 0.330523 10.5735 0.450685 10.4705 0.604856C10.3675 0.759027 10.3125 0.940283 10.3125 1.1257C10.3125 1.37434 10.4113 1.6128 10.5871 1.78862C10.7629 1.96443 11.0014 2.0632 11.25 2.0632ZM4.6875 8.62571C4.19022 8.62571 3.71331 8.82325 3.36167 9.17488C3.01004 9.52651 2.8125 10.0034 2.8125 10.5007C2.8125 10.998 3.01004 11.4749 3.36167 11.8265C3.71331 12.1782 4.19022 12.3757 4.6875 12.3757H10.3125C10.8098 12.3757 11.2867 12.1782 11.6383 11.8265C11.99 11.4749 12.1875 10.998 12.1875 10.5007C12.1875 10.0034 11.99 9.52651 11.6383 9.17488C11.2867 8.82325 10.8098 8.62571 10.3125 8.62571H4.6875Z" fill="#405C72"/>
</g>
<defs>
<clipPath id="clip0">
<rect width="15" height="15" fill="white" transform="translate(0 0.188232)"/>
</clipPath>
</defs>
</svg>
